<svg xmlns="http://www.w3.org/2000/svg" xmlns:xlink="http://www.w3.org/1999/xlink" width="1411" height="605" version="1.1" viewBox="0 0 1411 605"><g id="Fest" fill="none" fill-rule="evenodd" stroke="none" stroke-width="1" opacity=".6"><g id="snow" fill="#FFF"><path d="M776.051656,258.058692 C778.655144,259.008838 775.267563,263.484526 773.433949,261.4964 C771.902326,259.835888 774.822024,257.609264 776.051656,258.058692 Z M548.051656,402.058553 C550.655144,403.008732 547.267563,407.484578 545.433949,405.496382 C543.902326,403.835812 546.822024,401.60975 548.051656,402.058553 Z M340.051656,316.058692 C342.655144,317.008838 339.267563,321.484526 337.433949,319.4964 C335.902326,317.835888 338.822024,315.609264 340.051656,316.058692 Z M384.051656,178.058553 C386.655144,179.008732 383.267563,183.484578 381.433949,181.496382 C379.902326,179.835812 382.822024,177.60975 384.051656,178.058553 Z M683.051656,196.058692 C685.655144,197.008838 682.267563,201.484526 680.433949,199.4964 C678.902326,197.835888 681.822024,195.609264 683.051656,196.058692 Z M613.051671,12.0586923 C615.655117,13.0088383 612.267591,17.4845255 610.434006,15.4963997 C608.902408,13.8358883 611.821382,11.6092644 613.051671,12.0586923 Z M705.051656,335.058692 C707.655144,336.008838 704.267563,340.484526 702.433949,338.4964 C700.902326,336.835888 703.822024,334.609264 705.051656,335.058692 Z M1184.05127,276.058692 C1186.6554,277.008838 1183.26786,281.484526 1181.43427,279.4964 C1179.90199,277.835888 1182.82165,275.609264 1184.05127,276.058692 Z M1093.05158,420.058712 C1095.655,421.008939 1092.26818,425.485008 1090.43394,423.496071 C1088.90235,421.835418 1091.82198,419.609245 1093.05158,420.058712 Z M93.051656,111.058692 C95.6551441,112.008838 92.2675626,116.484526 90.4339487,114.4964 C88.9023259,112.835888 91.8220243,110.609264 93.051656,111.058692 Z M50.051656,375.058553 C52.6551441,376.008732 49.2675626,380.484578 47.4339487,378.496382 C45.9023259,376.835812 48.8220243,374.60975 50.051656,375.058553 Z M115.051656,450.058553 C117.655144,451.008732 114.267563,455.484578 112.433949,453.496382 C110.902326,451.835812 113.822024,449.60975 115.051656,450.058553 Z M137.051656,295.058692 C139.655144,296.008838 136.267563,300.484526 134.433949,298.4964 C132.902326,296.835888 135.822024,294.609264 137.051656,295.058692 Z M205.051656,149.058553 C207.655144,150.008732 204.267563,154.484578 202.433949,152.496382 C200.902326,150.835812 203.822024,148.60975 205.051656,149.058553 Z M71.051656,517.058553 C73.6551441,518.008732 70.2675626,522.484578 68.4339487,520.496382 C66.9023259,518.835812 69.8220243,516.60975 71.051656,517.058553 Z M28.051656,267.058692 C30.6551441,268.008838 27.2675626,272.484526 25.4339487,270.4964 C23.9023259,268.835888 26.8220243,266.609264 28.051656,267.058692 Z M296.051656,469.058712 C298.655144,470.00831 295.267563,474.485077 293.433949,472.496115 C291.902326,470.835441 294.822024,468.60924 296.051656,469.058712 Z M478.051671,526.058712 C480.655117,527.00831 477.267591,531.485077 475.434006,529.496115 C473.902408,527.835441 476.821382,525.60924 478.051671,526.058712 Z M961.491991,460.511785 C963.92339,462.895802 956.881503,465.717309 956.0641,462.670213 C955.381956,460.125217 960.343596,459.384935 961.491991,460.511785 Z M1318.49199,574.511785 C1320.92339,576.895802 1313.8815,579.717309 1313.0641,576.670213 C1312.38196,574.125217 1317.3436,573.384935 1318.49199,574.511785 Z M820.051579,131.058553 C822.655001,132.008732 819.268182,136.484578 817.433938,134.496382 C815.902354,132.835812 818.821978,130.60975 820.051579,131.058553 Z M863.051718,169.058692 C865.655037,170.008838 862.267675,174.484526 860.43418,172.4964 C858.90198,170.835888 861.822166,168.609264 863.051718,169.058692 Z M227.051656,384.058712 C229.655144,385.00831 226.267563,389.485077 224.433949,387.496115 C222.902326,385.835441 225.822024,383.60924 227.051656,384.058712 Z M1071.05173,344.058553 C1073.65501,345.008732 1070.2677,349.484578 1068.43424,347.496382 C1066.90206,345.835812 1069.82152,343.60975 1071.05173,344.058553 Z M1138.05127,592.058712 C1140.6554,593.00831 1137.26786,597.485077 1135.43427,595.496115 C1133.90199,593.835441 1136.82165,591.60924 1138.05127,592.058712 Z M1250.05172,411.058553 C1252.65504,412.008732 1249.26768,416.484578 1247.43418,414.496382 C1245.90198,412.835812 1248.82217,410.60975 1250.05172,411.058553 Z M1027.05158,205.058553 C1029.655,206.008732 1026.26818,210.484578 1024.43394,208.496382 C1022.90235,206.835812 1025.82198,204.60975 1027.05158,205.058553 Z M1271.05172,69.0586923 C1273.65504,70.0088383 1270.26768,74.4845255 1268.43418,72.4963997 C1266.90198,70.8358883 1269.82217,68.6092644 1271.05172,69.0586923 Z M1361.05158,393.058553 C1363.655,394.008732 1360.26818,398.484578 1358.43394,396.496382 C1356.90235,394.835812 1359.82198,392.60975 1361.05158,393.058553 Z M1206.05172,478.058712 C1208.65504,479.008939 1205.26768,483.485008 1203.43418,481.496071 C1201.90198,479.835418 1204.82217,477.609245 1206.05172,478.058712 Z M1383.05172,565.058553 C1385.65504,566.008732 1382.26768,570.484578 1380.43418,568.496382 C1378.90198,566.835812 1381.82217,564.60975 1383.05172,565.058553 Z M1340.05158,140.058692 C1342.655,141.008838 1339.26818,145.484526 1337.43394,143.4964 C1335.90235,141.835888 1338.82198,139.609264 1340.05158,140.058692 Z M1005.05172,50.0586923 C1007.65504,51.0088383 1004.26768,55.4845255 1002.43418,53.4963997 C1000.90198,51.8358883 1003.82217,49.6092644 1005.05172,50.0586923 Z M569.051656,60.0586923 C571.655144,61.0088383 568.267563,65.4845255 566.433949,63.4963997 C564.902326,61.8358883 567.822024,59.6092644 569.051656,60.0586923 Z M158.051656,21.0585527 C160.655144,22.0087323 157.267563,26.4845781 155.433949,24.4963819 C153.902326,22.8358117 156.822024,20.60975 158.051656,21.0585527 Z M318.051656,41.0586923 C320.655144,42.0088383 317.267563,46.4845255 315.433949,44.4963997 C313.902326,42.8358883 316.822024,40.6092644 318.051656,41.0586923 Z M1228.05158,187.058692 C1230.655,188.008838 1227.26818,192.484526 1225.43394,190.4964 C1223.90235,188.835888 1226.82198,186.609264 1228.05158,187.058692 Z M1294.42147,159.415454 C1296.78359,161.952701 1291.21997,166.17932 1290.13096,162.653733 C1289.22169,159.709146 1293.30563,158.216422 1294.42147,159.415454 Z M885.051718,498.058712 C887.655037,499.00831 884.267675,503.485077 882.43418,501.496115 C880.90198,499.835441 883.822166,497.60924 885.051718,498.058712 Z M798.051671,583.058553 C800.655117,584.008732 797.267591,588.484578 795.434006,586.496382 C793.902408,584.835812 796.821382,582.60975 798.051671,583.058553 Z M406.051671,556.058553 C408.655117,557.008732 405.267591,561.484578 403.434006,559.496382 C401.902408,557.835812 404.821382,555.60975 406.051671,556.058553 Z M591.051656,601.058553 C593.655144,602.008732 590.267563,606.484578 588.433949,604.496382 C586.902326,602.835812 589.822024,600.60975 591.051656,601.058553 Z M842.051718,441.058706 C844.655037,442.008849 841.267675,446.48452 839.43418,444.496401 C837.90198,442.835255 840.822166,440.60928 842.051718,441.058706 Z M635.051656,535.058553 C637.655144,536.008732 634.267563,540.484578 632.433949,538.496382 C630.902326,536.835812 633.822024,534.60975 635.051656,535.058553 Z M500.814772,285.073355 C504.068586,286.261309 499.834876,291.855473 497.542518,289.370583 C495.627874,287.295125 499.277207,284.51159 500.814772,285.073355 Z M910.806083,354.33012 C912.404213,358.587392 903.586632,361.267202 904.015149,356.371432 C904.374488,352.281921 910.050894,352.318854 910.806083,354.33012 Z M252.806079,545.33012 C254.404338,549.587392 245.585406,552.267202 246.015239,547.371432 C246.373966,543.281921 252.050829,543.318854 252.806079,545.33012 Z M1162.80608,121.33058 C1164.40421,125.587096 1155.58663,128.26745 1156.01515,123.371204 C1156.37449,119.281818 1162.05089,119.31875 1162.80608,121.33058 Z M183.805935,91.3301875 C185.404812,95.5875339 176.586008,98.2673899 177.015194,93.3709093 C177.373916,89.2819537 183.050697,89.318887 183.805935,91.3301875 Z M526.805935,488.33012 C528.404812,492.587392 519.586008,495.267202 520.015194,490.371432 C520.373916,486.281921 526.050697,486.318854 526.805935,488.33012 Z M6.80607907,235.330372 C8.40433839,239.587078 -0.41459387,242.26755 0.0152385949,237.371087 C0.373966136,233.28152 6.05082948,233.319079 6.80607907,235.330372 Z M1115.81477,224.073368 C1119.06859,225.261319 1114.83488,230.855468 1112.54252,228.370584 C1110.62787,226.29453 1114.27721,223.511605 1115.81477,224.073368 Z M982.814772,325.073368 C986.068586,326.261319 981.834876,331.855468 979.542518,329.370584 C977.627874,327.29453 981.277207,324.511605 982.814772,325.073368 Z M1049.81477,507.073215 C1053.06859,508.261661 1048.83488,513.855303 1046.54252,511.370645 C1044.62787,509.294778 1048.27721,506.512104 1049.81477,507.073215 Z M361.814565,365.073368 C365.068838,366.261319 360.834723,371.855468 358.542488,369.370584 C356.627948,367.29453 360.277083,364.511605 361.814565,365.073368 Z M754.814772,214.073368 C758.068586,215.261319 753.834876,220.855468 751.542518,218.370584 C749.627874,216.29453 753.277207,213.511605 754.814772,214.073368 Z M273.814551,101.073368 C277.068863,102.261319 272.834696,107.855468 270.542434,105.370584 C268.627871,103.29453 272.277686,100.511605 273.814551,101.073368 Z M661.808446,430.977416 C663.211534,433.458552 656.555457,437.587626 653.281383,435.364278 C652.25816,434.669204 654.287121,430.79219 655.193973,430.039193 C657.866895,427.819664 661.055951,429.646463 661.808446,430.977416 Z M430.872274,31.694921 C431.807729,33.8215073 427.370631,37.3609277 425.187716,35.4550369 C424.505344,34.8586487 425.857742,31.5360968 426.462673,30.8905943 C428.244358,28.9885306 430.370597,30.5538104 430.872274,31.694921 Z M456.808446,246.977213 C458.211534,249.458449 451.555457,253.58769 448.281383,251.364253 C447.25816,250.668513 449.287121,246.79198 450.193973,246.038952 C452.866292,243.81997 456.055951,245.646206 456.808446,246.977213 Z M732.808446,79.9772129 C734.211534,82.4584493 727.555457,86.5876899 724.281383,84.3642526 C723.25816,83.6685135 725.287121,79.7919795 726.193973,79.0389517 C728.866292,76.8199702 732.055951,78.646206 732.808446,79.9772129 Z M937.808446,1.97721293 C939.211533,4.45844925 932.55546,8.58768989 929.281387,6.36425263 C928.258165,5.66914999 930.287125,1.79197954 931.193373,1.03895169 C933.866897,-1.1800298 937.055952,0.646205968 937.808446,1.97721293 Z M1410.80845,305.977213 C1412.21153,308.458449 1405.55546,312.58769 1402.28139,310.364253 C1401.25816,309.66915 1403.28712,305.79198 1404.19337,305.038952 C1406.8669,302.81997 1410.05595,304.646206 1410.80845,305.977213 Z"/></g></g></svg>